<svg xmlns="http://www.w3.org/2000/svg" width="48" height="48" fill="none" viewBox="0 0 48 48"><circle cx="16" cy="16" r="16" fill="#5F06DE" fill-opacity=".16"/><path stroke="url(#paint0_radial_128_645)" stroke-linecap="round" stroke-linejoin="round" stroke-width="2.4" d="M38 42V10C38 7.79086 36.2091 6 34 6H14C11.7909 6 10 7.79086 10 10V42M38 42L42 41.9999M38 42H28M10 42L6 41.9999M10 42H20M18 14H20M18 22H20M28 14H30M28 22H30M20 42V32C20 30.8954 20.8954 30 22 30H26C27.1046 30 28 30.8954 28 32V42M20 42H28"/><defs><radialGradient id="paint0_radial_128_645" cx="0" cy="0" r="1" gradientTransform="translate(5.475 42) rotate(-44.7252) scale(63.4025 227.834)" gradientUnits="userSpaceOnUse"><stop stop-color="#0800B5"/><stop offset=".501" stop-color="#7807E9"/><stop offset="1" stop-color="#CB37FF"/></radialGradient></defs></svg>